<?xml version="1.0" standalone="no"?>
<!DOCTYPE svg PUBLIC "-//W3C//DTD SVG 20010904//EN"
 "http://www.w3.org/TR/2001/REC-SVG-20010904/DTD/svg10.dtd">
<svg version="1.0" xmlns="http://www.w3.org/2000/svg"
 width="700.000000pt" height="700.000000pt" viewBox="0 0 700.000000 700.000000"
 preserveAspectRatio="xMidYMid meet">
<metadata>
Created by potrace 1.11, written by Peter Selinger 2001-2013
</metadata>
<g transform="translate(0.000000,700.000000) scale(0.100000,-0.100000)"
fill="#000000" stroke="none">
<path d="M3501 6633 c-5 -10 -25 -67 -44 -128 -117 -363 -157 -490 -157 -500
0 -53 -152 -100 -218 -68 -17 8 -38 13 -46 10 -26 -10 -50 -58 -50 -98 0 -37
-1 -40 -40 -50 -319 -81 -538 -169 -806 -323 -123 -70 -119 -70 -148 -19 -15
24 -116 24 -113 -1 4 -26 -2 -45 -22 -67 -24 -28 -112 -79 -137 -79 -15 0
-365 173 -548 272 -52 27 -96 47 -100 44 -3 -4 16 -48 42 -99 169 -328 258
-512 263 -541 11 -69 -72 -176 -136 -176 -21 0 -23 -3 -16 -37 3 -21 19 -54
35 -75 25 -31 27 -38 15 -48 -8 -7 -15 -16 -15 -21 0 -5 -19 -39 -41 -76 -125
-203 -226 -449 -305 -740 -28 -106 -32 -111 -78 -94 -21 9 -30 5 -61 -25 -37
-34 -37 -35 -20 -61 21 -31 17 -127 -8 -184 l-15 -37 -209 -67 c-114 -37 -244
-78 -288 -92 -126 -39 -176 -59 -177 -69 0 -5 57 -28 128 -51 71 -22 223 -71
337 -108 l209 -67 15 -37 c24 -57 28 -142 9 -179 -16 -31 -16 -31 18 -57 25
-19 44 -25 71 -23 l37 3 49 -167 c81 -281 159 -465 288 -688 34 -58 61 -107
61 -110 0 -3 -14 -14 -30 -23 -27 -16 -30 -23 -30 -68 0 -40 3 -49 18 -50 56
-2 78 -19 118 -87 44 -75 44 -74 -211 -567 -43 -84 -72 -151 -66 -153 6 -2 61
23 123 56 244 129 497 252 520 252 32 0 124 -55 144 -85 9 -14 17 -36 18 -48
2 -41 93 -29 117 15 13 25 14 24 162 -69 185 -116 287 -166 462 -225 88 -29
297 -82 370 -94 21 -3 47 -8 59 -10 11 -2 68 -10 126 -17 166 -19 704 -14 739
8 4 2 23 6 44 9 20 3 54 9 75 12 93 15 263 57 360 89 119 40 139 48 262 110
106 53 140 72 279 157 l60 37 20 -25 c14 -18 29 -25 58 -26 55 -1 65 1 59 11
-11 18 16 70 50 96 50 38 123 68 137 57 32 -25 627 -321 627 -312 0 5 -30 67
-66 137 -155 297 -246 485 -246 507 0 62 71 154 125 163 36 5 36 6 30 47 -3
22 -16 54 -29 69 -14 16 -21 34 -17 40 5 7 29 44 54 82 108 164 235 467 304
730 15 55 29 107 31 116 3 12 13 15 35 13 17 -2 34 -6 38 -8 4 -3 22 11 41 30
33 34 33 35 18 67 -19 41 -13 141 13 188 14 28 2 23 489 182 107 35 195 68
195 73 0 5 -67 31 -150 57 -548 176 -525 167 -542 219 -19 59 -22 130 -7 160
8 15 11 33 9 40 -9 23 -61 48 -98 48 -40 0 -29 -25 -92 205 -51 185 -146 408
-264 615 l-81 142 23 19 c12 10 25 18 28 19 4 0 7 23 7 50 0 43 -3 50 -20 50
-47 0 -89 38 -123 111 -22 48 -22 53 -8 87 14 35 115 238 249 499 32 62 55
115 52 119 -4 3 -57 -21 -120 -54 -273 -144 -485 -250 -511 -256 -57 -13 -168
63 -180 124 -6 27 -10 30 -45 30 -28 0 -45 -7 -62 -25 -13 -14 -29 -25 -37
-25 -7 0 -43 19 -80 42 -98 59 -322 170 -438 216 -85 34 -172 61 -398 123 -37
10 -38 11 -33 49 3 32 -1 43 -28 73 l-32 35 -34 -18 c-19 -10 -42 -17 -50 -15
-8 1 -39 6 -68 10 -28 4 -61 14 -72 23 -21 18 -64 136 -175 485 -36 114 -68
207 -70 207 -2 0 -8 -8 -14 -17z m67 -272 c23 -59 137 -487 131 -491 -6 -4
-328 -5 -366 -1 -7 1 10 82 48 231 71 274 72 278 101 289 28 10 77 -6 86 -28z
m-408 -702 c97 -31 99 -31 330 -32 248 0 322 6 385 33 l45 19 128 -25 c168
-33 184 -38 347 -97 594 -215 1100 -665 1381 -1227 88 -178 146 -330 190 -503
36 -141 41 -219 19 -292 -23 -79 -27 -121 -28 -310 -3 -205 9 -343 32 -405 15
-38 17 -59 10 -87 -4 -21 -13 -74 -19 -118 -31 -227 -177 -581 -351 -845 -118
-180 -304 -390 -469 -532 -72 -61 -258 -198 -270 -198 -14 0 -77 116 -83 153
-6 37 -5 38 86 111 204 164 390 355 535 549 195 262 340 626 398 1002 25 164
26 485 3 645 -42 287 -113 512 -237 755 -45 89 -192 321 -228 360 -11 11 -44
52 -75 90 -68 84 -158 178 -218 225 -24 19 -48 40 -55 45 -288 256 -769 476
-1136 520 -25 3 -63 8 -85 10 -22 3 -58 8 -80 11 -50 8 -326 8 -380 1 -22 -3
-69 -9 -105 -13 -36 -3 -74 -8 -85 -10 -11 -3 -38 -7 -60 -10 -127 -18 -392
-104 -555 -179 -65 -30 -122 -55 -125 -55 -16 0 -135 -62 -187 -97 -65 -43
-224 -188 -377 -343 -175 -178 -283 -328 -411 -576 -40 -76 -90 -168 -111
-204 -33 -55 -41 -81 -53 -170 -9 -58 -22 -130 -29 -160 -8 -30 -18 -77 -22
-103 -3 -27 -8 -59 -11 -70 -16 -82 -23 -493 -11 -592 12 -95 28 -193 37 -225
5 -19 11 -46 13 -60 20 -112 112 -361 193 -520 96 -189 193 -327 354 -505 25
-28 83 -92 130 -144 46 -51 89 -99 95 -106 5 -8 30 -23 55 -34 25 -12 68 -42
95 -66 28 -25 58 -47 67 -51 15 -4 8 -19 -42 -95 l-60 -89 -43 27 c-182 114
-428 344 -586 547 -228 294 -454 790 -462 1016 -2 36 -7 80 -13 98 -7 25 -5
46 8 90 30 93 31 106 30 387 -1 242 -3 276 -21 329 -14 41 -19 80 -18 125 4
84 7 102 49 241 168 565 504 1030 986 1366 139 97 354 213 500 269 89 34 266
93 295 98 17 3 57 11 90 17 33 6 76 14 95 19 50 13 49 13 120 -10z m-1782
-226 c139 -74 346 -193 360 -207 10 -10 -12 -37 -114 -139 -69 -70 -131 -127
-138 -127 -18 0 -266 420 -266 451 0 15 52 69 66 69 3 0 44 -21 92 -47z m4383
30 c40 -24 47 -56 21 -101 -11 -21 -30 -55 -42 -77 -12 -22 -61 -107 -108
-188 l-85 -148 -45 43 c-127 122 -222 217 -222 222 0 3 78 51 173 107 94 56
192 115 217 130 54 33 54 33 91 12z m-2064 -430 c7 -3 10 -9 8 -14 -6 -9 17
-16 78 -23 20 -2 37 -1 37 3 0 17 267 -50 305 -75 11 -8 28 -14 38 -14 9 0 20
-6 23 -13 3 -8 16 -12 32 -9 34 5 88 -34 73 -52 -6 -7 -44 -79 -86 -162 -41
-82 -80 -157 -85 -166 -14 -24 -20 -37 -84 -165 -48 -96 -59 -111 -77 -108
-12 3 -23 6 -24 7 -10 11 -135 266 -185 378 -77 171 -119 246 -164 292 -46 47
-68 54 -106 31 -60 -35 -104 -107 -213 -348 -96 -214 -171 -355 -190 -361 -24
-8 -41 8 -78 75 -18 31 -38 63 -44 71 -7 8 -33 53 -58 100 -25 47 -79 145
-121 219 -53 96 -73 139 -66 150 16 29 367 143 479 155 108 12 138 17 166 25
31 10 318 13 342 4z m-123 -196 c46 -61 118 -231 180 -426 45 -143 45 -145 4
-137 -76 16 -130 20 -253 20 -71 0 -148 -3 -170 -7 -22 -4 -55 -10 -74 -14
l-34 -6 7 39 c12 64 101 316 145 409 59 126 114 185 153 164 9 -5 28 -24 42
-42z m-772 -323 c59 -104 133 -235 165 -292 32 -56 72 -116 88 -132 l30 -30
110 56 c134 67 212 85 350 80 119 -4 182 -21 299 -81 48 -25 93 -45 101 -45
22 0 48 45 195 325 34 66 86 164 114 217 28 54 57 98 64 98 18 0 143 -64 220
-114 82 -52 165 -121 271 -223 l80 -78 -84 -193 c-142 -324 -186 -472 -152
-517 19 -24 92 -25 200 -1 102 23 115 25 182 32 33 4 63 8 66 10 14 8 38 -27
76 -111 58 -127 74 -219 59 -335 -8 -60 -44 -194 -69 -251 l-15 -36 -103 3
c-57 2 -144 6 -194 10 -184 13 -203 8 -158 -47 15 -18 120 -107 233 -197 113
-90 204 -170 204 -178 -1 -8 -22 -44 -46 -81 -25 -38 -71 -108 -103 -158 -52
-80 -178 -252 -196 -265 -3 -3 -25 -27 -49 -55 -72 -84 -64 -84 -176 6 -150
123 -177 134 -304 134 -99 -1 -115 -4 -270 -54 -91 -29 -172 -54 -180 -56 -8
-2 -44 -9 -80 -16 -72 -14 -313 -18 -400 -6 -71 10 -100 18 -314 84 -166 51
-185 55 -261 51 -104 -4 -178 -40 -299 -144 -47 -41 -88 -74 -92 -74 -8 0 -26
19 -116 123 -113 131 -173 212 -268 370 -67 109 -82 142 -74 155 21 35 473
360 572 411 56 30 -27 35 -168 11 -91 -15 -138 -20 -282 -25 -112 -3 -140 -2
-152 11 -18 18 -63 160 -73 234 -23 161 -4 279 69 424 l30 58 66 -5 c66 -6 78
-8 177 -27 204 -40 245 -32 239 48 -7 95 -31 167 -151 447 l-94 219 88 87
c110 108 196 184 248 218 52 34 197 101 210 98 6 -2 58 -89 117 -193z m-728
-313 c18 -38 40 -89 49 -114 l15 -46 -46 15 c-67 20 -101 17 -158 -11 -72 -38
-97 -75 -102 -151 -4 -54 -1 -70 21 -106 14 -24 34 -52 46 -62 26 -23 26 -33
3 -40 -33 -11 -152 -230 -177 -327 -9 -32 -13 -88 -11 -143 2 -77 10 -112 50
-231 25 -77 51 -147 56 -154 9 -15 63 -18 230 -12 100 4 110 3 110 -11 0 -7
-11 -20 -23 -29 -120 -86 -355 -239 -368 -239 -4 0 -18 37 -33 83 -141 449
-111 928 84 1333 28 57 50 106 50 108 0 2 18 36 41 75 44 77 92 131 115 131 8
0 29 -31 48 -69z m2973 25 c41 -46 110 -172 101 -182 -4 -3 -27 2 -52 10 -57
19 -126 14 -173 -14 -19 -11 -36 -20 -39 -20 -8 0 -4 22 10 53 8 18 26 59 41
92 31 71 52 105 64 105 5 0 27 -20 48 -44z m-214 -366 c9 -46 24 -75 66 -125
l41 -50 -32 -7 c-62 -14 -108 -12 -125 5 -15 14 -15 22 2 89 29 121 39 139 48
88z m415 -22 c41 -83 99 -322 109 -453 8 -99 8 -352 1 -420 -15 -127 -86 -406
-107 -419 -13 -8 -381 243 -381 259 0 14 22 15 160 12 88 -1 164 -1 169 2 15
11 82 205 101 291 16 78 19 181 7 235 -21 89 -111 268 -166 328 l-25 27 32 31
c17 17 42 53 54 79 13 27 26 49 29 50 3 0 11 -10 17 -22z m-3009 -57 c15 -45
14 -108 -2 -114 -6 -2 -23 -3 -37 -2 -14 1 -36 3 -50 4 -49 3 -54 16 -21 50
17 18 43 50 58 72 28 43 34 42 52 -10z m-1407 -418 c5 -26 2 -352 -4 -358 -5
-6 -70 9 -283 65 -241 62 -232 59 -239 92 -8 42 13 80 49 90 17 5 122 35 235
67 113 33 212 59 221 60 9 1 18 -7 21 -16z m5438 -8 c8 -2 76 -20 150 -39 74
-20 164 -43 200 -53 36 -9 71 -21 78 -28 18 -16 23 -52 10 -80 -13 -28 -23
-32 -293 -105 -104 -28 -197 -54 -206 -56 -13 -4 -15 17 -13 178 1 101 2 187
3 192 0 4 13 5 29 1 15 -4 34 -8 42 -10z m-3235 -1444 c230 -79 292 -92 461
-93 147 -1 280 23 514 94 302 91 365 79 559 -102 45 -41 81 -80 81 -87 0 -18
-204 -149 -325 -207 -87 -43 -277 -116 -301 -116 -2 0 8 18 22 40 76 114 10
250 -120 250 -68 0 -111 -27 -138 -87 -35 -80 -5 -165 76 -208 39 -21 46 -35
19 -36 -10 0 -27 -2 -38 -5 -54 -11 -195 -24 -195 -18 0 3 9 23 20 44 90 177
-78 364 -247 276 -90 -46 -127 -184 -73 -271 11 -18 20 -37 20 -42 0 -14 -54
-10 -204 13 -51 8 -63 21 -28 29 40 8 99 74 108 119 19 104 -46 186 -148 186
-61 0 -109 -28 -135 -79 -33 -64 -26 -118 23 -177 21 -27 34 -45 28 -42 -6 4
-21 9 -35 12 -47 8 -216 74 -299 116 -124 62 -310 183 -310 201 0 5 98 103
143 144 25 22 103 72 132 83 99 40 191 31 390 -37z m-1411 -615 l138 -133 -68
-40 c-38 -22 -140 -81 -228 -133 -87 -51 -169 -92 -184 -92 -28 0 -61 35 -62
66 0 20 22 62 159 304 51 89 95 162 99 162 4 -1 69 -61 146 -134z m3951 65
c25 -38 45 -72 45 -74 0 -3 22 -41 49 -85 90 -144 133 -232 127 -255 -6 -27
-58 -59 -80 -51 -9 4 -96 52 -194 108 -98 55 -195 110 -215 121 -21 11 -36 26
-35 34 2 11 244 267 256 270 1 1 23 -30 47 -68z m-2854 -65 c19 -7 67 -26 107
-41 l73 -27 -6 -51 c-4 -27 -9 -59 -11 -71 -9 -47 -63 -364 -69 -408 -5 -36
-10 -48 -23 -48 -28 0 -62 12 -57 19 2 4 6 18 9 32 3 13 12 50 20 82 26 97 36
86 -146 161 -30 12 -35 27 -15 44 10 8 17 7 28 -6 8 -9 48 -28 88 -42 69 -24
73 -24 86 -7 7 9 16 39 20 65 3 26 8 56 11 67 2 11 7 38 9 60 3 22 8 50 11 63
5 26 -31 52 -109 78 -58 19 -44 33 -152 -151 -43 -71 -102 -172 -132 -222 -30
-51 -60 -93 -67 -93 -6 0 -18 6 -27 13 -14 10 3 40 135 239 139 208 174 258
181 258 1 0 18 -6 36 -14z m1869 -58 c-1 -26 -26 -147 -32 -153 -2 -2 -35 -17
-72 -33 -51 -22 -64 -31 -50 -35 10 -3 63 -16 117 -28 82 -18 109 -29 158 -65
32 -24 59 -48 59 -53 0 -5 -14 -14 -32 -20 -29 -10 -36 -8 -97 33 -50 34 -90
51 -166 71 -55 14 -109 28 -119 32 -16 4 -18 2 -12 -18 18 -68 19 -66 -13 -77
-36 -13 -40 -9 -76 77 -15 37 -23 67 -17 73 5 5 58 21 118 36 60 15 114 31
120 35 6 3 19 35 29 69 22 80 21 78 56 78 24 0 29 -4 29 -22z m-353 -52 l32
-63 -25 -12 c-14 -6 -30 -11 -37 -11 -11 0 -67 108 -67 129 0 8 18 15 55 20 6
0 25 -28 42 -63z m-672 -113 c-2 -59 0 -61 78 -62 39 -1 74 -5 77 -11 3 -5 6
-40 5 -77 l0 -68 -53 -3 c-51 -3 -52 -3 -52 26 0 23 4 28 23 28 17 -1 22 5 22
24 0 23 -3 25 -50 25 l-50 0 4 -120 c2 -66 4 -148 6 -182 l2 -63 -33 0 c-17 0
-34 6 -36 13 -3 6 -6 68 -8 137 -2 69 -3 144 -4 167 -1 24 -5 43 -11 44 -67 5
-91 5 -98 2 -13 -8 14 -43 33 -43 11 0 21 -3 21 -7 10 -55 10 -55 -50 -51
l-56 4 -1 60 c0 94 -2 93 80 96 l71 3 3 48 3 47 38 0 c37 0 37 -1 36 -37z
m566 -31 c0 -9 2 -24 4 -32 8 -40 25 -134 25 -141 0 -10 -24 -18 -115 -40 -44
-11 -87 -22 -97 -25 -13 -4 -18 6 -27 46 -17 78 -18 76 59 95 84 20 100 15 33
-10 -27 -10 -54 -22 -60 -28 -20 -15 -15 -44 8 -50 28 -7 150 28 165 47 12 17
10 49 -4 101 -8 28 -12 30 -53 30 -25 -1 -84 -12 -133 -25 -100 -26 -108 -36
-95 -109 25 -145 33 -182 40 -187 6 -4 65 7 223 42 11 3 32 7 46 10 14 2 30 6
37 9 9 3 27 -34 20 -42 -4 -3 -114 -31 -152 -38 -16 -3 -73 -14 -125 -24 -52
-11 -98 -16 -102 -13 -3 4 -9 32 -13 62 -4 30 -12 96 -19 145 -6 50 -11 99
-11 109 0 16 24 26 155 61 158 43 189 44 191 7z m-996 2 c11 -2 40 -6 65 -9
75 -8 102 -16 97 -30 -3 -7 -9 -33 -12 -59 -8 -51 -11 -53 -70 -43 -118 19
-165 30 -165 38 0 12 20 11 98 -2 59 -11 67 -10 78 6 25 33 1 50 -93 68 -48
10 -95 17 -104 17 -26 0 -45 -32 -48 -77 -4 -76 1 -83 92 -98 15 -3 39 -7 55
-10 15 -3 52 -10 83 -16 l56 -11 -13 -83 c-17 -116 -21 -126 -47 -120 -31 6
-134 23 -187 30 -137 17 -142 20 -136 65 3 21 8 49 11 62 l6 25 82 -14 c115
-19 127 -22 127 -34 0 -8 -12 -9 -32 -5 -18 4 -54 9 -79 12 -40 5 -47 3 -51
-14 -3 -11 -3 -24 1 -30 12 -20 154 -50 208 -43 14 1 37 104 28 130 -6 19 -77
40 -195 56 -73 10 -81 14 -76 38 2 12 9 55 17 96 l13 73 85 -7 c47 -4 95 -9
106 -11z m1284 -248 c17 -36 31 -67 31 -71 0 -3 -15 -12 -32 -20 l-33 -13 -32
66 -32 67 32 17 c18 9 33 17 33 18 1 0 16 -29 33 -64z"/>
<path d="M3124 4890 c-240 -66 -284 -80 -284 -93 0 -9 100 -224 190 -410 50
-102 47 -104 112 46 21 51 45 107 53 125 8 17 22 47 30 65 8 17 32 73 53 122
22 50 51 116 66 148 23 51 24 57 8 56 -9 0 -112 -26 -228 -59z"/>
<path d="M3660 4946 c0 -3 42 -99 77 -176 9 -19 55 -123 102 -230 92 -208 107
-238 114 -230 7 8 161 316 201 404 30 65 34 82 24 92 -11 10 -78 33 -148 50
-20 5 -73 19 -145 39 -156 43 -225 59 -225 51z"/>
<path d="M3487 4730 c-26 -43 -127 -300 -127 -322 0 -20 -1 -20 165 -22 123
-2 135 0 135 20 0 14 -39 119 -71 191 -10 24 -19 45 -19 48 0 11 -53 115 -59
115 -4 0 -15 -13 -24 -30z"/>
<path d="M2490 4384 c-129 -63 -242 -118 -250 -123 -34 -19 -40 -5 210 -516
146 -298 168 -347 163 -362 -6 -18 -31 -16 -67 6 -83 50 -269 84 -467 85 -103
0 -121 -3 -165 -25 -72 -36 -97 -86 -98 -198 0 -100 13 -134 63 -168 58 -39
122 -52 291 -57 148 -4 247 8 339 40 83 31 84 30 101 -51 6 -27 13 -59 16 -71
5 -17 -2 -24 -35 -37 -51 -21 -65 -66 -48 -163 12 -74 56 -96 162 -81 49 8 50
7 68 -24 l17 -31 -34 -39 c-89 -98 -114 -175 -77 -246 22 -43 47 -73 61 -73 8
0 47 39 161 162 43 46 44 47 65 30 l21 -18 -29 -65 c-41 -88 -47 -155 -18
-192 45 -56 128 -22 211 88 44 59 49 61 97 44 31 -11 31 -11 27 -73 -7 -129
31 -205 90 -178 33 15 71 78 91 152 l17 60 42 0 c42 0 43 0 54 -47 20 -82 58
-149 92 -163 28 -12 33 -11 55 12 31 30 41 72 39 161 l-1 67 40 11 c36 10 42
9 56 -9 8 -11 31 -40 50 -65 65 -84 153 -113 187 -61 26 40 21 118 -12 186
-28 60 -28 88 2 88 10 0 62 -44 116 -97 l98 -98 30 35 c69 82 59 169 -35 275
-42 48 -42 50 -27 78 16 27 18 28 84 24 57 -4 73 -1 99 17 37 25 46 48 47 131
1 69 -3 76 -46 99 -18 9 -33 21 -33 27 0 12 31 153 35 157 1 1 38 -10 81 -25
74 -25 91 -27 264 -29 147 -1 200 2 258 16 132 32 162 72 159 214 -2 112 -23
152 -95 188 -43 21 -59 23 -197 22 -175 -2 -316 -27 -416 -74 -35 -16 -66 -26
-70 -22 -4 4 -12 24 -19 45 -12 38 -11 40 106 270 219 430 255 505 257 533 2
25 -5 32 -60 60 -35 18 -142 73 -239 123 -97 50 -182 91 -188 91 -7 0 -34 -44
-61 -97 -161 -316 -220 -423 -232 -423 -7 0 -36 11 -63 25 -46 23 -179 72
-225 81 -56 12 -241 15 -323 5 -111 -14 -156 -28 -285 -91 l-98 -47 -136 271
c-74 149 -136 271 -137 272 0 1 -107 -50 -236 -112z m280 -96 c37 -79 71 -154
75 -168 l7 -25 -24 28 -23 27 -57 -27 c-32 -16 -58 -32 -58 -37 0 -17 75 -156
84 -156 5 0 33 12 63 27 52 25 55 28 49 57 -6 29 -5 29 8 11 9 -11 16 -28 16
-37 0 -9 5 -20 10 -23 20 -12 9 -22 -50 -49 -34 -14 -63 -32 -66 -39 -2 -7 2
-30 11 -50 20 -49 4 -47 -29 3 l-26 39 -50 -26 c-27 -14 -54 -31 -59 -37 -6
-7 4 -38 25 -84 19 -41 34 -80 34 -89 0 -32 -28 9 -80 115 -123 250 -222 448
-231 456 -11 12 -62 -11 -54 -24 3 -6 4 -10 1 -10 -10 0 -36 64 -29 70 5 3 33
16 63 29 30 13 62 27 70 32 27 15 245 128 248 129 2 0 34 -64 72 -142z m1687
64 c133 -68 216 -112 225 -121 7 -6 -103 -234 -124 -256 -5 -5 16 42 46 105
l55 115 -20 18 c-12 9 -25 17 -29 17 -5 0 -72 -129 -150 -286 -85 -170 -146
-282 -152 -276 -5 5 4 36 22 77 34 76 36 71 -44 110 -48 23 -66 24 -66 4 0
-13 -29 -43 -36 -37 -2 3 0 17 6 32 15 40 15 40 -50 71 -49 23 -62 26 -75 15
-24 -20 -19 -6 34 93 27 51 83 160 125 244 l76 152 28 -12 c15 -7 73 -36 129
-65z m-1579 -298 c-4 -3 -12 5 -18 18 -12 22 -12 22 6 6 10 -10 15 -20 12 -24z
m1653 -137 c-10 -9 -11 -8 -5 6 3 10 9 15 12 12 3 -3 0 -11 -7 -18z m-694
-430 c17 -22 18 -47 18 -300 -1 -270 -1 -278 -22 -298 -21 -21 -29 -22 -304
-23 -249 -1 -285 1 -303 16 -20 15 -21 26 -21 304 0 263 1 290 17 306 16 16
44 18 307 18 l290 0 18 -23z"/>
<path d="M2637 4331 l-58 -27 41 -78 c22 -43 42 -82 45 -86 5 -8 110 44 120
60 6 10 -67 153 -80 156 -5 1 -36 -10 -68 -25z"/>
<path d="M2484 4259 l-61 -30 32 -62 c17 -34 37 -72 43 -84 l13 -23 52 26 c81
41 80 37 40 112 -50 97 -48 96 -119 61z"/>
<path d="M2588 4049 c-42 -23 -55 -35 -51 -48 13 -36 52 -117 66 -135 14 -19
16 -18 71 13 31 18 56 37 56 43 0 17 -70 158 -78 158 -4 0 -33 -14 -64 -31z"/>
<path d="M4245 4290 c-21 -43 -37 -81 -35 -83 8 -7 116 -57 124 -57 4 0 25 37
46 83 l40 82 -58 27 c-31 16 -61 28 -67 28 -5 0 -28 -36 -50 -80z"/>
<path d="M4405 4225 c-31 -62 -35 -78 -24 -91 17 -20 97 -56 110 -49 10 7 79
139 79 153 0 8 -23 19 -116 58 -6 3 -28 -29 -49 -71z"/>
<path d="M4147 4086 c-20 -40 -37 -77 -37 -82 0 -10 99 -64 117 -64 14 0 85
149 77 161 -6 10 -98 59 -111 59 -5 0 -25 -33 -46 -74z"/>
<path d="M4307 4019 c-21 -39 -37 -77 -37 -83 0 -14 89 -66 112 -66 10 0 88
135 88 154 0 6 -82 53 -106 60 -18 5 -26 -4 -57 -65z"/>
<path d="M3283 3482 c-26 -3 -34 -9 -40 -30 -3 -15 -6 -138 -6 -275 1 -183 4
-251 13 -262 11 -13 52 -15 276 -15 201 1 267 4 277 14 9 10 12 75 12 280 0
292 1 285 -60 287 -80 3 -444 4 -472 1z m492 -46 c7 -2 10 -44 9 -127 -1 -68
-3 -181 -3 -251 l-1 -128 -255 0 -255 0 0 253 c0 140 2 256 5 259 6 6 484 1
500 -6z"/>
<path d="M3500 3322 c-41 -2 -79 -7 -84 -12 -10 -10 -12 -237 -2 -247 3 -4 57
-7 119 -7 l112 -1 1 132 1 131 -36 4 c-20 1 -70 2 -111 0z"/>
<path d="M2306 2735 c-108 -52 -225 -167 -246 -243 -35 -127 36 -216 144 -181
44 15 129 93 168 154 32 52 56 125 64 197 5 49 4 59 -15 74 -29 25 -62 25
-115 -1z"/>
<path d="M4595 2724 c-58 -90 67 -345 200 -408 119 -57 209 39 168 178 -11 38
-31 65 -93 128 -121 120 -235 163 -275 102z"/>
<path d="M2397 2326 c-81 -30 -159 -111 -171 -180 -11 -65 49 -145 120 -160
88 -19 224 103 224 201 0 109 -79 172 -173 139z"/>
<path d="M4519 2323 c-56 -34 -82 -128 -52 -190 34 -72 130 -143 195 -143 74
0 142 67 140 136 -3 71 -59 151 -133 189 -45 24 -118 27 -150 8z"/>
<path d="M2643 1804 c-48 -24 -66 -49 -70 -101 -8 -90 65 -155 148 -133 46 13
88 52 90 84 1 12 2 30 3 41 5 80 -98 145 -171 109z"/>
<path d="M4264 1803 c-38 -19 -63 -60 -68 -111 -4 -32 1 -46 25 -75 76 -92
203 -55 216 62 6 55 -19 98 -70 122 -50 22 -62 23 -103 2z"/>
</g>
</svg>
